<mxfile host="app.diagrams.net" agent="Mozilla/5.0 (Windows NT 10.0; Win64; x64) AppleWebKit/537.36 (KHTML, like Gecko) Chrome/135.0.0.0 Safari/537.36 Edg/135.0.0.0" version="26.2.9">
  <diagram name="Страница — 1" id="iFe9Sgm9EDnMhY7X3IZ6">
    <mxGraphModel dx="987" dy="1377" grid="1" gridSize="10" guides="1" tooltips="1" connect="1" arrows="1" fold="1" page="1" pageScale="1" pageWidth="1169" pageHeight="827" math="0" shadow="0">
      <root>
        <mxCell id="0" />
        <mxCell id="1" parent="0" />
        <mxCell id="DKnIJ1NkU9WBQp_WuMZn-9" style="edgeStyle=orthogonalEdgeStyle;rounded=0;orthogonalLoop=1;jettySize=auto;html=1;" edge="1" parent="1" source="DKnIJ1NkU9WBQp_WuMZn-1" target="DKnIJ1NkU9WBQp_WuMZn-8">
          <mxGeometry relative="1" as="geometry" />
        </mxCell>
        <mxCell id="DKnIJ1NkU9WBQp_WuMZn-13" style="edgeStyle=orthogonalEdgeStyle;rounded=0;orthogonalLoop=1;jettySize=auto;html=1;" edge="1" parent="1" source="DKnIJ1NkU9WBQp_WuMZn-1" target="DKnIJ1NkU9WBQp_WuMZn-12">
          <mxGeometry relative="1" as="geometry" />
        </mxCell>
        <mxCell id="DKnIJ1NkU9WBQp_WuMZn-17" style="edgeStyle=orthogonalEdgeStyle;rounded=0;orthogonalLoop=1;jettySize=auto;html=1;entryX=0;entryY=0.5;entryDx=0;entryDy=0;" edge="1" parent="1" source="DKnIJ1NkU9WBQp_WuMZn-1" target="DKnIJ1NkU9WBQp_WuMZn-16">
          <mxGeometry relative="1" as="geometry">
            <Array as="points">
              <mxPoint x="610" y="120" />
              <mxPoint x="610" y="160" />
            </Array>
          </mxGeometry>
        </mxCell>
        <mxCell id="DKnIJ1NkU9WBQp_WuMZn-25" style="edgeStyle=orthogonalEdgeStyle;rounded=0;orthogonalLoop=1;jettySize=auto;html=1;" edge="1" parent="1" source="DKnIJ1NkU9WBQp_WuMZn-1" target="DKnIJ1NkU9WBQp_WuMZn-14">
          <mxGeometry relative="1" as="geometry" />
        </mxCell>
        <mxCell id="DKnIJ1NkU9WBQp_WuMZn-29" style="edgeStyle=orthogonalEdgeStyle;rounded=0;orthogonalLoop=1;jettySize=auto;html=1;entryX=0;entryY=0.5;entryDx=0;entryDy=0;" edge="1" parent="1" source="DKnIJ1NkU9WBQp_WuMZn-1" target="DKnIJ1NkU9WBQp_WuMZn-18">
          <mxGeometry relative="1" as="geometry">
            <Array as="points">
              <mxPoint x="700" y="120" />
              <mxPoint x="700" y="25" />
            </Array>
          </mxGeometry>
        </mxCell>
        <mxCell id="DKnIJ1NkU9WBQp_WuMZn-36" style="edgeStyle=orthogonalEdgeStyle;rounded=0;orthogonalLoop=1;jettySize=auto;html=1;entryX=0.5;entryY=0;entryDx=0;entryDy=0;" edge="1" parent="1" source="DKnIJ1NkU9WBQp_WuMZn-1" target="DKnIJ1NkU9WBQp_WuMZn-34">
          <mxGeometry relative="1" as="geometry" />
        </mxCell>
        <mxCell id="DKnIJ1NkU9WBQp_WuMZn-1" value="Администратор&amp;nbsp;" style="shape=umlActor;verticalLabelPosition=bottom;verticalAlign=top;html=1;outlineConnect=0;" vertex="1" parent="1">
          <mxGeometry x="270" y="90" width="30" height="60" as="geometry" />
        </mxCell>
        <mxCell id="DKnIJ1NkU9WBQp_WuMZn-26" style="edgeStyle=orthogonalEdgeStyle;rounded=0;orthogonalLoop=1;jettySize=auto;html=1;entryX=0.5;entryY=1;entryDx=0;entryDy=0;" edge="1" parent="1" source="DKnIJ1NkU9WBQp_WuMZn-6" target="DKnIJ1NkU9WBQp_WuMZn-14">
          <mxGeometry relative="1" as="geometry" />
        </mxCell>
        <mxCell id="DKnIJ1NkU9WBQp_WuMZn-6" value="Клиент" style="shape=umlActor;verticalLabelPosition=bottom;verticalAlign=top;html=1;outlineConnect=0;" vertex="1" parent="1">
          <mxGeometry x="350" y="400" width="30" height="60" as="geometry" />
        </mxCell>
        <mxCell id="DKnIJ1NkU9WBQp_WuMZn-38" style="edgeStyle=orthogonalEdgeStyle;rounded=0;orthogonalLoop=1;jettySize=auto;html=1;entryX=0;entryY=0.5;entryDx=0;entryDy=0;" edge="1" parent="1" source="DKnIJ1NkU9WBQp_WuMZn-7" target="DKnIJ1NkU9WBQp_WuMZn-37">
          <mxGeometry relative="1" as="geometry" />
        </mxCell>
        <mxCell id="DKnIJ1NkU9WBQp_WuMZn-40" style="edgeStyle=orthogonalEdgeStyle;rounded=0;orthogonalLoop=1;jettySize=auto;html=1;" edge="1" parent="1" source="DKnIJ1NkU9WBQp_WuMZn-7" target="DKnIJ1NkU9WBQp_WuMZn-39">
          <mxGeometry relative="1" as="geometry">
            <Array as="points">
              <mxPoint x="205" y="620" />
              <mxPoint x="425" y="620" />
            </Array>
          </mxGeometry>
        </mxCell>
        <mxCell id="DKnIJ1NkU9WBQp_WuMZn-44" style="edgeStyle=orthogonalEdgeStyle;rounded=0;orthogonalLoop=1;jettySize=auto;html=1;entryX=0;entryY=0.5;entryDx=0;entryDy=0;" edge="1" parent="1" source="DKnIJ1NkU9WBQp_WuMZn-7" target="DKnIJ1NkU9WBQp_WuMZn-43">
          <mxGeometry relative="1" as="geometry">
            <Array as="points">
              <mxPoint x="205" y="620" />
              <mxPoint x="460" y="620" />
              <mxPoint x="460" y="680" />
            </Array>
          </mxGeometry>
        </mxCell>
        <mxCell id="DKnIJ1NkU9WBQp_WuMZn-46" style="edgeStyle=orthogonalEdgeStyle;rounded=0;orthogonalLoop=1;jettySize=auto;html=1;entryX=0;entryY=1;entryDx=0;entryDy=0;" edge="1" parent="1" source="DKnIJ1NkU9WBQp_WuMZn-7" target="DKnIJ1NkU9WBQp_WuMZn-45">
          <mxGeometry relative="1" as="geometry">
            <Array as="points">
              <mxPoint x="708" y="620" />
            </Array>
          </mxGeometry>
        </mxCell>
        <mxCell id="DKnIJ1NkU9WBQp_WuMZn-48" style="edgeStyle=orthogonalEdgeStyle;rounded=0;orthogonalLoop=1;jettySize=auto;html=1;entryX=0.5;entryY=0;entryDx=0;entryDy=0;" edge="1" parent="1" source="DKnIJ1NkU9WBQp_WuMZn-7" target="DKnIJ1NkU9WBQp_WuMZn-47">
          <mxGeometry relative="1" as="geometry" />
        </mxCell>
        <mxCell id="DKnIJ1NkU9WBQp_WuMZn-49" style="edgeStyle=orthogonalEdgeStyle;rounded=0;orthogonalLoop=1;jettySize=auto;html=1;entryX=0.5;entryY=1;entryDx=0;entryDy=0;" edge="1" parent="1" source="DKnIJ1NkU9WBQp_WuMZn-7" target="DKnIJ1NkU9WBQp_WuMZn-12">
          <mxGeometry relative="1" as="geometry" />
        </mxCell>
        <mxCell id="DKnIJ1NkU9WBQp_WuMZn-7" value="Инженер" style="shape=umlActor;verticalLabelPosition=bottom;verticalAlign=top;html=1;outlineConnect=0;" vertex="1" parent="1">
          <mxGeometry x="190" y="550" width="30" height="60" as="geometry" />
        </mxCell>
        <mxCell id="DKnIJ1NkU9WBQp_WuMZn-8" value="Регистрирование новых автоматов" style="ellipse;whiteSpace=wrap;html=1;" vertex="1" parent="1">
          <mxGeometry x="360" y="20" width="150" height="70" as="geometry" />
        </mxCell>
        <mxCell id="DKnIJ1NkU9WBQp_WuMZn-10" value="Редактирование имеющихся автоматов" style="ellipse;whiteSpace=wrap;html=1;" vertex="1" parent="1">
          <mxGeometry x="550" y="-20" width="150" height="60" as="geometry" />
        </mxCell>
        <mxCell id="DKnIJ1NkU9WBQp_WuMZn-12" value="Контроль состояния работы автоматов" style="ellipse;whiteSpace=wrap;html=1;" vertex="1" parent="1">
          <mxGeometry x="40" y="310" width="130" height="70" as="geometry" />
        </mxCell>
        <mxCell id="DKnIJ1NkU9WBQp_WuMZn-14" value="Контроль состояния и эффективности работы сети" style="ellipse;whiteSpace=wrap;html=1;" vertex="1" parent="1">
          <mxGeometry x="480" y="215" width="155" height="95" as="geometry" />
        </mxCell>
        <mxCell id="DKnIJ1NkU9WBQp_WuMZn-56" style="edgeStyle=orthogonalEdgeStyle;rounded=0;orthogonalLoop=1;jettySize=auto;html=1;" edge="1" parent="1" source="DKnIJ1NkU9WBQp_WuMZn-16" target="DKnIJ1NkU9WBQp_WuMZn-18">
          <mxGeometry relative="1" as="geometry" />
        </mxCell>
        <mxCell id="DKnIJ1NkU9WBQp_WuMZn-16" value="Добавление новых компаний в систему" style="ellipse;whiteSpace=wrap;html=1;" vertex="1" parent="1">
          <mxGeometry x="740" y="130" width="130" height="60" as="geometry" />
        </mxCell>
        <mxCell id="DKnIJ1NkU9WBQp_WuMZn-18" value="Редактирование информации имеющихся компаний&amp;nbsp;" style="ellipse;whiteSpace=wrap;html=1;" vertex="1" parent="1">
          <mxGeometry x="880" y="-10" width="150" height="70" as="geometry" />
        </mxCell>
        <mxCell id="DKnIJ1NkU9WBQp_WuMZn-20" value="Работа с отчетами" style="ellipse;whiteSpace=wrap;html=1;" vertex="1" parent="1">
          <mxGeometry x="360" y="157.5" width="120" height="50" as="geometry" />
        </mxCell>
        <mxCell id="DKnIJ1NkU9WBQp_WuMZn-21" style="edgeStyle=orthogonalEdgeStyle;rounded=0;orthogonalLoop=1;jettySize=auto;html=1;entryX=0.33;entryY=0.096;entryDx=0;entryDy=0;entryPerimeter=0;" edge="1" parent="1" source="DKnIJ1NkU9WBQp_WuMZn-1" target="DKnIJ1NkU9WBQp_WuMZn-20">
          <mxGeometry relative="1" as="geometry" />
        </mxCell>
        <mxCell id="DKnIJ1NkU9WBQp_WuMZn-52" style="edgeStyle=orthogonalEdgeStyle;rounded=0;orthogonalLoop=1;jettySize=auto;html=1;entryX=1;entryY=0.5;entryDx=0;entryDy=0;" edge="1" parent="1" source="DKnIJ1NkU9WBQp_WuMZn-22" target="DKnIJ1NkU9WBQp_WuMZn-12">
          <mxGeometry relative="1" as="geometry" />
        </mxCell>
        <mxCell id="DKnIJ1NkU9WBQp_WuMZn-22" value="Контроль арендованных автоматов" style="ellipse;whiteSpace=wrap;html=1;" vertex="1" parent="1">
          <mxGeometry x="150" y="390" width="120" height="60" as="geometry" />
        </mxCell>
        <mxCell id="DKnIJ1NkU9WBQp_WuMZn-27" style="edgeStyle=orthogonalEdgeStyle;rounded=0;orthogonalLoop=1;jettySize=auto;html=1;entryX=0.011;entryY=0.73;entryDx=0;entryDy=0;entryPerimeter=0;" edge="1" parent="1" source="DKnIJ1NkU9WBQp_WuMZn-8" target="DKnIJ1NkU9WBQp_WuMZn-10">
          <mxGeometry relative="1" as="geometry" />
        </mxCell>
        <mxCell id="DKnIJ1NkU9WBQp_WuMZn-28" style="edgeStyle=orthogonalEdgeStyle;rounded=0;orthogonalLoop=1;jettySize=auto;html=1;entryX=0.592;entryY=0.97;entryDx=0;entryDy=0;entryPerimeter=0;" edge="1" parent="1" source="DKnIJ1NkU9WBQp_WuMZn-1" target="DKnIJ1NkU9WBQp_WuMZn-10">
          <mxGeometry relative="1" as="geometry" />
        </mxCell>
        <mxCell id="DKnIJ1NkU9WBQp_WuMZn-30" value="Выбор торгового автомата в аренду" style="ellipse;whiteSpace=wrap;html=1;" vertex="1" parent="1">
          <mxGeometry x="620" y="360" width="140" height="70" as="geometry" />
        </mxCell>
        <mxCell id="DKnIJ1NkU9WBQp_WuMZn-32" value="Бронирование автомата" style="ellipse;whiteSpace=wrap;html=1;" vertex="1" parent="1">
          <mxGeometry x="710" y="260" width="140" height="60" as="geometry" />
        </mxCell>
        <mxCell id="DKnIJ1NkU9WBQp_WuMZn-34" value="Работа с договорами" style="ellipse;whiteSpace=wrap;html=1;" vertex="1" parent="1">
          <mxGeometry x="220" y="250" width="130" height="60" as="geometry" />
        </mxCell>
        <mxCell id="DKnIJ1NkU9WBQp_WuMZn-35" style="edgeStyle=orthogonalEdgeStyle;rounded=0;orthogonalLoop=1;jettySize=auto;html=1;entryX=0.391;entryY=1.043;entryDx=0;entryDy=0;entryPerimeter=0;" edge="1" parent="1" source="DKnIJ1NkU9WBQp_WuMZn-6" target="DKnIJ1NkU9WBQp_WuMZn-34">
          <mxGeometry relative="1" as="geometry" />
        </mxCell>
        <mxCell id="DKnIJ1NkU9WBQp_WuMZn-37" value="Планирование выездов и встреч с клиентами" style="ellipse;whiteSpace=wrap;html=1;" vertex="1" parent="1">
          <mxGeometry x="330" y="520" width="150" height="70" as="geometry" />
        </mxCell>
        <mxCell id="DKnIJ1NkU9WBQp_WuMZn-39" value="Создание фото-, видео- и печатных заметок" style="ellipse;whiteSpace=wrap;html=1;" vertex="1" parent="1">
          <mxGeometry x="340" y="700" width="170" height="90" as="geometry" />
        </mxCell>
        <mxCell id="DKnIJ1NkU9WBQp_WuMZn-41" value="Заполнение отчетов" style="ellipse;whiteSpace=wrap;html=1;" vertex="1" parent="1">
          <mxGeometry x="530" y="550" width="130" height="50" as="geometry" />
        </mxCell>
        <mxCell id="DKnIJ1NkU9WBQp_WuMZn-42" style="edgeStyle=orthogonalEdgeStyle;rounded=0;orthogonalLoop=1;jettySize=auto;html=1;entryX=0.05;entryY=0.776;entryDx=0;entryDy=0;entryPerimeter=0;" edge="1" parent="1" source="DKnIJ1NkU9WBQp_WuMZn-7" target="DKnIJ1NkU9WBQp_WuMZn-41">
          <mxGeometry relative="1" as="geometry">
            <Array as="points">
              <mxPoint x="480" y="620" />
              <mxPoint x="480" y="589" />
            </Array>
          </mxGeometry>
        </mxCell>
        <mxCell id="DKnIJ1NkU9WBQp_WuMZn-43" value="Запрашивание электронных подписей или файлов подтверждения работы" style="ellipse;whiteSpace=wrap;html=1;" vertex="1" parent="1">
          <mxGeometry x="600" y="630" width="190" height="100" as="geometry" />
        </mxCell>
        <mxCell id="DKnIJ1NkU9WBQp_WuMZn-45" value="Коммуникация с клиентами и командой" style="ellipse;whiteSpace=wrap;html=1;" vertex="1" parent="1">
          <mxGeometry x="690" y="510" width="120" height="80" as="geometry" />
        </mxCell>
        <mxCell id="DKnIJ1NkU9WBQp_WuMZn-47" value="Управление задачами" style="ellipse;whiteSpace=wrap;html=1;" vertex="1" parent="1">
          <mxGeometry x="200" y="720" width="110" height="70" as="geometry" />
        </mxCell>
        <mxCell id="DKnIJ1NkU9WBQp_WuMZn-51" style="edgeStyle=orthogonalEdgeStyle;rounded=0;orthogonalLoop=1;jettySize=auto;html=1;entryX=1.011;entryY=0.645;entryDx=0;entryDy=0;entryPerimeter=0;" edge="1" parent="1" source="DKnIJ1NkU9WBQp_WuMZn-6" target="DKnIJ1NkU9WBQp_WuMZn-22">
          <mxGeometry relative="1" as="geometry" />
        </mxCell>
        <mxCell id="DKnIJ1NkU9WBQp_WuMZn-54" style="edgeStyle=orthogonalEdgeStyle;rounded=0;orthogonalLoop=1;jettySize=auto;html=1;entryX=0.013;entryY=0.384;entryDx=0;entryDy=0;entryPerimeter=0;" edge="1" parent="1" source="DKnIJ1NkU9WBQp_WuMZn-6" target="DKnIJ1NkU9WBQp_WuMZn-30">
          <mxGeometry relative="1" as="geometry">
            <Array as="points">
              <mxPoint x="580" y="430" />
              <mxPoint x="580" y="387" />
            </Array>
          </mxGeometry>
        </mxCell>
        <mxCell id="DKnIJ1NkU9WBQp_WuMZn-55" style="edgeStyle=orthogonalEdgeStyle;rounded=0;orthogonalLoop=1;jettySize=auto;html=1;entryX=0.583;entryY=1.034;entryDx=0;entryDy=0;entryPerimeter=0;" edge="1" parent="1" source="DKnIJ1NkU9WBQp_WuMZn-30" target="DKnIJ1NkU9WBQp_WuMZn-32">
          <mxGeometry relative="1" as="geometry" />
        </mxCell>
      </root>
    </mxGraphModel>
  </diagram>
</mxfile>
